<svg height='100px' width='100px'  fill="#000000" xmlns="http://www.w3.org/2000/svg" data-name="Слой 1" viewBox="0 0 128 128" x="0px" y="0px"><title>ic_prev</title><path d="M126,118.81a2,2,0,0,1-1-.26L33,65.73a2,2,0,0,1,0-3.46L125,9.45a2,2,0,0,1,3,1.74V116.81a2,2,0,0,1-1,1.74A2,2,0,0,1,126,118.81ZM38,64l86,49.36V14.64Z"></path><path d="M94,118.81a2,2,0,0,1-1-.26L1,65.73a2,2,0,0,1,0-3.46L93,9.45a2,2,0,0,1,3,1.74V20a2,2,0,0,1-4,0V14.64L6,64l86,49.36v-4.6a2,2,0,1,1,4,0v8a2,2,0,0,1-1,1.74A2,2,0,0,1,94,118.81Z"></path></svg>