<svg xmlns="http://www.w3.org/2000/svg" xmlns:xlink="http://www.w3.org/1999/xlink" xml:space="preserve" version="1.1" style="shape-rendering:geometricPrecision;text-rendering:geometricPrecision;image-rendering:optimizeQuality;" viewBox="0 0 847 847" x="0px" y="0px" fill-rule="evenodd" clip-rule="evenodd"><defs><style type="text/css">
   
    .fil0 {fill:black}
   
  </style></defs><g><path class="fil0" d="M534 313l175 0c154,0 154,221 0,221l-175 0 0 175c0,154 -221,154 -221,0l0 -175 -175 0c-155,0 -155,-221 0,-221l175 0 0 -175c0,-155 221,-155 221,0l0 175zm-36 -175l0 211 211 0c107,0 107,149 0,149l-211 0 0 211c0,107 -149,107 -149,0l0 -211 -211 0c-108,0 -108,-149 0,-149l211 0 0 -211c0,-108 149,-108 149,0z"/></g><text x="0" y="862" fill="#000000" font-size="5px" font-weight="bold" font-family="'Helvetica Neue', Helvetica, Arial-Unicode, Arial, Sans-serif">Created by Hasan</text><text x="0" y="867" fill="#000000" font-size="5px" font-weight="bold" font-family="'Helvetica Neue', Helvetica, Arial-Unicode, Arial, Sans-serif">from the Noun Project</text></svg>